HIERARCHY
ROOT Hips
{
  OFFSET 0.0000 0.0000 0.0000
  CHANNELS 6 Xposition Yposition Zposition Zrotation Xrotation Yrotation
  JOINT Chest
  {
    OFFSET -0.1728 10.2870 0.1254
    CHANNELS 3 Zrotation Xrotation Yrotation
    JOINT Chest2
    {
      OFFSET 0.3229 15.8173 -2.6440
      CHANNELS 3 Zrotation Xrotation Yrotation
      JOINT LeftCollar
      {
        OFFSET -0.0683 16.8828 0.2989
        CHANNELS 3 Zrotation Xrotation Yrotation
        JOINT LeftShoulder
        {
          OFFSET 16.0110 -3.0750 2.0528
          CHANNELS 3 Zrotation Xrotation Yrotation
          JOINT LeftElbow
          {
            OFFSET 2.6153 -25.4187 1.7231
            CHANNELS 3 Zrotation Xrotation Yrotation
            JOINT LeftWrist
            {
              OFFSET 2.3595 -22.4741 1.0488
              CHANNELS 3 Zrotation Xrotation Yrotation
              End Site
              {
                  OFFSET 1.4871 -13.9919 1.1523
              }
            }
          }
        }
      }
      JOINT RightCollar
      {
        OFFSET -0.0683 16.8828 0.2989
        CHANNELS 3 Zrotation Xrotation Yrotation
        JOINT RightShoulder
        {
          OFFSET -16.3743 -2.4390 2.0841
          CHANNELS 3 Zrotation Xrotation Yrotation
          JOINT RightElbow
          {
            OFFSET -2.6865 -25.0857 1.2959
            CHANNELS 3 Zrotation Xrotation Yrotation
            JOINT RightWrist
            {
              OFFSET -2.3810 -22.8348 1.0329
              CHANNELS 3 Zrotation Xrotation Yrotation
              End Site
              {
                  OFFSET -1.4652 -14.7234 1.0705
              }
            }
          }
        }
      }
      JOINT Neck
      {
        OFFSET -0.0683 16.8828 0.2989
        CHANNELS 3 Zrotation Xrotation Yrotation
        JOINT Head
        {
          OFFSET 0.1300 11.4121 4.7143
          CHANNELS 3 Zrotation Xrotation Yrotation
          End Site
          {
              OFFSET 0.0452 18.0438 0.3379
          }
        }
      }
    }
  }
  JOINT LeftHip
  {
    OFFSET 9.3186 -0.0408 3.5432
    CHANNELS 3 Zrotation Xrotation Yrotation
    JOINT LeftKnee
    {
      OFFSET -0.5435 -48.8357 0.3144
      CHANNELS 3 Zrotation Xrotation Yrotation
      JOINT LeftAnkle
      {
        OFFSET 0.2027 -38.4920 -4.2946
        CHANNELS 3 Zrotation Xrotation Yrotation
        End Site
        {
            OFFSET 1.1879 -7.4484 17.8063
        }
      }
    }
  }
  JOINT RightHip
  {
    OFFSET -10.0712 -0.0749 3.1483
    CHANNELS 3 Zrotation Xrotation Yrotation
    JOINT RightKnee
    {
      OFFSET 0.3157 -48.5179 0.1055
      CHANNELS 3 Zrotation Xrotation Yrotation
      JOINT RightAnkle
      {
        OFFSET -1.1248 -38.4399 -3.4305
        CHANNELS 3 Zrotation Xrotation Yrotation
        End Site
        {
            OFFSET -1.3336 -7.3741 17.3830
        }
      }
    }
  }
}
MOTION
Frames:	24
Frame Time:	0.033333
154.0644 96.5663 533.7393 -7.24 9.21 -141.43 0.46 15.40 -1.59 0.49 15.37 -1.57 -0.18 -0.70 0.26 20.23 -15.89 -57.26 9.32 -22.19 -2.26 10.43 5.37 -46.13 -0.01 -0.80 0.01 -18.88 -16.10 72.37 -14.03 -10.95 3.32 0.68 -3.35 -13.68 0.72 -11.51 1.39 0.74 -4.19 1.40 -0.52 13.76 -14.33 0.12 -0.71 0.02 1.87 -1.26 4.12 2.14 11.61 -0.30 -0.80 5.33 -0.06 -0.59 -4.98 2.92 
153.9984 96.5532 533.6135 -7.41 9.69 -141.72 0.53 15.64 -1.47 0.56 15.62 -1.45 -0.18 -0.70 0.26 19.94 -15.85 -56.79 9.32 -22.09 -2.26 10.48 5.42 -46.59 -0.01 -0.80 0.01 -19.11 -16.28 73.40 -14.05 -10.66 3.32 0.45 -3.38 -15.41 0.63 -11.34 1.57 0.63 -4.03 1.58 -0.35 14.50 -14.16 0.11 -1.05 0.02 1.88 -1.20 4.20 2.21 12.48 0.08 -0.65 4.60 -0.06 -0.71 -4.63 2.87 
153.9419 96.5375 533.4977 -7.53 10.07 -141.97 0.57 15.79 -1.37 0.59 15.76 -1.35 -0.18 -0.70 0.26 19.66 -15.74 -56.74 9.32 -22.15 -2.26 10.53 5.47 -47.05 -0.01 -0.80 0.01 -19.19 -16.33 73.38 -14.05 -10.59 3.32 0.29 -3.34 -15.91 0.58 -11.23 1.68 0.57 -3.92 1.69 -0.23 15.10 -14.03 0.11 -1.28 0.02 1.89 -1.19 4.30 2.26 13.12 0.36 -0.52 4.11 -0.07 -0.80 -4.40 2.86 
153.8982 96.5220 533.3976 -7.62 10.34 -142.18 0.59 15.90 -1.28 0.62 15.87 -1.26 -0.18 -0.70 0.26 19.43 -15.62 -56.73 9.31 -22.34 -2.27 10.58 5.52 -47.50 -0.01 -0.80 0.01 -19.19 -16.30 72.84 -14.05 -10.61 3.32 0.16 -3.25 -15.74 0.58 -11.17 1.74 0.56 -3.86 1.74 -0.14 15.54 -13.94 0.11 -1.41 0.02 1.89 -1.20 4.39 2.29 13.54 0.55 -0.44 3.87 -0.07 -0.87 -4.28 2.88 
153.8682 96.5093 533.3175 -7.67 10.50 -142.33 0.60 15.98 -1.22 0.63 15.95 -1.20 -0.18 -0.70 0.26 19.28 -15.52 -56.56 9.31 -22.51 -2.27 10.64 5.57 -47.96 -0.01 -0.80 0.01 -19.14 -16.25 72.29 -14.05 -10.65 3.32 0.08 -3.16 -15.32 0.58 -11.14 1.76 0.56 -3.83 1.76 -0.10 15.82 -13.89 0.11 -1.49 0.02 1.89 -1.21 4.44 2.30 13.75 0.65 -0.40 3.79 -0.07 -0.90 -4.27 2.89 
153.8502 96.5007 533.2587 -7.68 10.55 -142.38 0.61 16.01 -1.19 0.64 15.99 -1.17 -0.18 -0.70 0.26 19.21 -15.45 -56.21 9.30 -22.68 -2.28 10.69 5.61 -48.42 -0.01 -0.80 0.01 -19.08 -16.21 71.94 -14.04 -10.70 3.32 0.06 -3.07 -14.89 0.58 -11.11 1.77 0.56 -3.80 1.78 -0.09 15.95 -13.87 0.11 -1.53 0.02 1.90 -1.23 4.48 2.30 13.81 0.68 -0.37 3.79 -0.07 -0.94 -4.30 2.88 
153.8406 96.4957 533.2185 -7.69 10.57 -142.40 0.61 16.05 -1.16 0.64 16.02 -1.14 -0.18 -0.70 0.26 19.18 -15.39 -55.84 9.30 -22.75 -2.28 10.75 5.66 -48.88 -0.01 -0.80 0.01 -19.03 -16.17 71.91 -14.04 -10.75 3.32 0.11 -3.01 -14.51 0.59 -11.08 1.79 0.57 -3.76 1.79 -0.09 15.98 -13.86 0.11 -1.56 0.02 1.90 -1.24 4.52 2.30 13.83 0.70 -0.36 3.81 -0.07 -0.96 -4.36 2.83 
153.8365 96.4930 533.1917 -7.71 10.56 -142.40 0.61 16.08 -1.14 0.64 16.05 -1.12 -0.18 -0.70 0.26 19.18 -15.36 -55.58 9.30 -22.75 -2.28 10.80 5.71 -49.37 -0.01 -0.80 0.01 -18.98 -16.15 72.01 -14.04 -10.79 3.32 0.25 -2.97 -14.24 0.61 -11.04 1.80 0.58 -3.73 1.80 -0.09 15.99 -13.87 0.11 -1.60 0.02 1.89 -1.24 4.54 2.30 13.84 0.73 -0.35 3.85 -0.07 -0.98 -4.41 2.75 
153.8366 96.4917 533.1735 -7.73 10.56 -142.38 0.61 16.10 -1.13 0.64 16.07 -1.11 -0.18 -0.70 0.26 19.18 -15.34 -55.50 9.30 -22.66 -2.28 10.87 5.76 -49.88 -0.01 -0.80 0.01 -18.95 -16.12 72.15 -14.04 -10.83 3.32 0.41 -2.91 -14.06 0.63 -11.00 1.80 0.60 -3.69 1.80 -0.10 16.00 -13.88 0.11 -1.63 0.01 1.89 -1.24 4.54 2.30 13.84 0.76 -0.35 3.89 -0.07 -1.00 -4.45 2.66 
153.8406 96.4916 533.1595 -7.75 10.54 -142.35 0.61 16.12 -1.14 0.63 16.09 -1.12 -0.18 -0.70 0.26 19.17 -15.37 -55.59 9.31 -22.58 -2.28 10.93 5.81 -50.43 -0.01 -0.80 0.01 -18.94 -16.11 72.20 -14.04 -10.85 3.32 0.54 -2.84 -14.00 0.65 -10.97 1.79 0.62 -3.66 1.79 -0.10 16.00 -13.89 0.11 -1.65 0.01 1.88 -1.23 4.53 2.30 13.85 0.82 -0.35 3.93 -0.06 -1.01 -4.47 2.58 
153.8474 96.4925 533.1467 -7.76 10.52 -142.32 0.61 16.14 -1.16 0.63 16.11 -1.14 -0.18 -0.70 0.26 19.16 -15.43 -55.82 9.31 -22.52 -2.27 10.98 5.86 -50.97 -0.01 -0.80 0.01 -18.94 -16.08 72.23 -14.04 -10.87 3.32 0.60 -2.78 -13.94 0.67 -10.94 1.77 0.65 -3.63 1.77 -0.10 15.99 -13.88 0.11 -1.67 0.01 1.87 -1.22 4.49 2.31 13.87 0.88 -0.35 3.94 -0.06 -1.02 -4.48 2.53 
153.8561 96.4942 533.1335 -7.77 10.51 -142.30 0.62 16.16 -1.20 0.64 16.13 -1.18 -0.18 -0.70 0.26 19.16 -15.53 -56.11 9.31 -22.47 -2.27 11.01 5.91 -51.30 -0.01 -0.80 0.01 -18.97 -16.06 72.05 -14.04 -10.89 3.32 0.59 -2.77 -13.76 0.70 -10.92 1.75 0.68 -3.60 1.75 -0.07 15.98 -13.81 0.10 -1.67 0.01 1.86 -1.21 4.45 2.32 13.89 0.94 -0.34 3.92 -0.06 -1.03 -4.46 2.51 
153.8656 96.4957 533.1186 -7.74 10.51 -142.36 0.64 16.17 -1.24 0.67 16.14 -1.22 -0.18 -0.70 0.26 19.22 -15.66 -56.46 9.31 -22.43 -2.27 10.97 5.94 -51.20 -0.01 -0.80 0.01 -18.99 -16.05 71.83 -14.04 -10.91 3.32 0.54 -2.83 -13.28 0.71 -10.89 1.74 0.69 -3.57 1.74 -0.04 15.97 -13.69 0.10 -1.67 0.01 1.85 -1.21 4.41 2.34 13.90 1.00 -0.33 3.86 -0.07 -1.07 -4.41 2.54 
153.8755 96.4961 533.1014 -7.70 10.54 -142.45 0.68 16.19 -1.27 0.70 16.16 -1.25 -0.18 -0.70 0.26 19.29 -15.80 -56.79 9.31 -22.40 -2.27 10.90 5.93 -50.55 -0.01 -0.80 0.01 -19.02 -16.05 71.56 -14.03 -10.94 3.32 0.52 -2.90 -12.54 0.72 -10.86 1.75 0.70 -3.55 1.75 -0.00 15.99 -13.55 0.09 -1.66 0.01 1.83 -1.23 4.36 2.37 13.91 1.06 -0.31 3.82 -0.07 -1.10 -4.37 2.61 
153.8852 96.4948 533.0813 -7.66 10.57 -142.58 0.72 16.21 -1.29 0.74 16.18 -1.27 -0.18 -0.70 0.26 19.37 -15.93 -57.10 9.31 -22.36 -2.27 10.80 5.87 -49.46 -0.01 -0.80 0.01 -19.03 -16.05 71.35 -14.03 -10.97 3.32 0.56 -2.97 -11.67 0.70 -10.86 1.80 0.68 -3.54 1.80 0.03 16.03 -13.39 0.09 -1.65 0.01 1.82 -1.26 4.31 2.38 13.91 1.10 -0.30 3.78 -0.08 -1.12 -4.35 2.69 
153.8932 96.4920 533.0568 -7.64 10.60 -142.70 0.76 16.24 -1.30 0.79 16.21 -1.28 -0.18 -0.70 0.26 19.43 -16.04 -57.28 9.31 -22.33 -2.27 10.72 5.76 -48.23 -0.01 -0.80 0.01 -19.05 -16.04 71.16 -14.03 -11.01 3.32 0.68 -3.03 -10.99 0.67 -10.88 1.86 0.64 -3.56 1.87 0.05 16.08 -13.24 0.09 -1.65 0.01 1.80 -1.29 4.28 2.40 13.91 1.14 -0.29 3.76 -0.08 -1.13 -4.35 2.78 
153.8978 96.4879 533.0263 -7.63 10.63 -142.82 0.80 16.26 -1.29 0.83 16.23 -1.27 -0.18 -0.70 0.26 19.47 -16.08 -57.35 9.31 -22.28 -2.26 10.65 5.66 -47.27 -0.01 -0.80 0.01 -19.07 -16.04 71.06 -14.03 -11.03 3.32 0.89 -3.15 -10.79 0.63 -10.92 1.92 0.59 -3.61 1.92 0.08 16.15 -13.09 0.09 -1.67 0.00 1.79 -1.32 4.24 2.41 13.92 1.17 -0.28 3.77 -0.09 -1.14 -4.36 2.88 
153.8979 96.4829 532.9880 -7.63 10.68 -142.93 0.84 16.29 -1.28 0.87 16.26 -1.26 -0.18 -0.70 0.26 19.48 -16.08 -57.33 9.32 -22.24 -2.26 10.58 5.56 -46.81 -0.01 -0.80 0.01 -19.10 -16.02 70.98 -14.03 -11.05 3.32 1.17 -3.35 -11.24 0.57 -10.98 1.98 0.53 -3.67 1.98 0.10 16.24 -12.95 0.09 -1.70 0.00 1.77 -1.34 4.21 2.43 13.98 1.17 -0.28 3.78 -0.09 -1.14 -4.39 2.99 
153.8945 96.4774 532.9419 -7.64 10.72 -143.03 0.88 16.32 -1.27 0.90 16.29 -1.25 -0.18 -0.70 0.26 19.46 -15.99 -57.37 9.32 -22.19 -2.26 10.47 5.49 -46.88 -0.01 -0.80 0.01 -19.14 -16.00 70.93 -14.03 -11.04 3.32 1.48 -3.64 -12.19 0.50 -11.05 2.04 0.45 -3.74 2.04 0.12 16.32 -12.82 0.09 -1.74 -0.00 1.74 -1.36 4.14 2.45 14.06 1.15 -0.29 3.79 -0.09 -1.14 -4.41 3.10 
153.8897 96.4715 532.8902 -7.64 10.77 -143.12 0.91 16.34 -1.28 0.94 16.32 -1.26 -0.18 -0.70 0.26 19.42 -15.88 -57.41 9.32 -22.14 -2.26 10.33 5.39 -47.21 -0.01 -0.80 0.01 -19.18 -15.97 70.86 -14.03 -11.01 3.32 1.74 -3.89 -13.29 0.42 -11.12 2.10 0.36 -3.81 2.10 0.14 16.41 -12.70 0.09 -1.79 -0.00 1.72 -1.39 4.09 2.48 14.14 1.14 -0.30 3.80 -0.09 -1.14 -4.43 3.20 
153.8856 96.4650 532.8378 -7.65 10.82 -143.21 0.95 16.37 -1.29 0.97 16.34 -1.27 -0.18 -0.70 0.26 19.36 -15.73 -57.53 9.32 -22.09 -2.26 10.16 5.28 -47.50 -0.01 -0.80 0.01 -19.21 -15.93 70.81 -14.03 -10.96 3.32 1.87 -3.98 -14.09 0.34 -11.20 2.17 0.27 -3.89 2.17 0.16 16.48 -12.57 0.09 -1.82 0.00 1.71 -1.41 4.05 2.50 14.20 1.16 -0.32 3.80 -0.08 -1.14 -4.44 3.25 
153.8825 96.4580 532.7896 -7.65 10.87 -143.29 0.98 16.39 -1.32 1.01 16.36 -1.30 -0.18 -0.70 0.26 19.31 -15.61 -57.60 9.32 -22.04 -2.25 10.00 5.15 -47.48 -0.01 -0.80 0.01 -19.24 -15.86 70.74 -14.04 -10.90 3.32 1.81 -3.85 -14.31 0.25 -11.29 2.24 0.17 -3.98 2.24 0.18 16.55 -12.44 0.09 -1.83 0.00 1.70 -1.45 4.01 2.54 14.25 1.23 -0.35 3.80 -0.08 -1.14 -4.46 3.30 
153.8788 96.4511 532.7506 -7.65 10.90 -143.36 1.02 16.41 -1.36 1.04 16.38 -1.34 -0.18 -0.70 0.26 19.24 -15.52 -57.60 9.32 -22.00 -2.25 9.84 5.06 -47.07 -0.01 -0.80 0.01 -19.25 -15.78 70.67 -14.04 -10.85 3.32 1.59 -3.52 -14.02 0.17 -11.40 2.31 0.08 -4.09 2.31 0.20 16.59 -12.32 0.09 -1.82 0.00 1.69 -1.49 3.98 2.57 14.28 1.33 -0.40 3.86 -0.09 -1.14 -4.48 3.34 
153.8720 96.4451 532.7227 -7.65 10.92 -143.40 1.05 16.41 -1.41 1.08 16.38 -1.39 -0.18 -0.70 0.26 19.14 -15.47 -57.46 9.32 -21.98 -2.25 9.69 5.07 -46.40 -0.01 -0.80 0.01 -19.25 -15.68 70.61 -14.04 -10.81 3.32 1.25 -3.14 -13.51 0.09 -11.52 2.38 -0.01 -4.21 2.38 0.20 16.62 -12.25 0.09 -1.78 0.00 1.68 -1.53 3.96 2.60 14.28 1.41 -0.45 3.94 -0.09 -1.13 -4.55 3.38 
